<svg xmlns="http://www.w3.org/2000/svg" viewBox="0 0 860 600" width="860" height="600" role="img" aria-label="Caimán llanero">
  <defs>
    <linearGradient id="bg" x1="0" y1="0" x2="0" y2="1">
      <stop offset="0" stop-color="#2f7a8c"/>
      <stop offset="1" stop-color="#13202e"/>
    </linearGradient>
  </defs>
  <rect width="860" height="600" fill="url(#bg)"/>
  <g fill="#ffffff" opacity="0.9">
    <path d="M110 352 Q150 344 210 346 Q310 332 392 336 Q486 332 566 342 Q660 350 726 330 L742 340 Q664 362 580 362 Q486 368 392 364 Q310 368 210 362 Q150 362 110 356 Z"/>
    <circle cx="220" cy="332" r="11"/>
    <rect x="250" y="360" width="20" height="44" rx="7"/>
    <rect x="330" y="362" width="20" height="44" rx="7"/>
    <rect x="470" y="362" width="20" height="44" rx="7"/>
    <rect x="560" y="360" width="20" height="44" rx="7"/>
  </g>
  <text x="430" y="120" text-anchor="middle" font-family="Inter, system-ui, sans-serif" font-size="18" letter-spacing="3" fill="#ffffff" opacity="0.7">FAUNA DEL LLANO · PLACEHOLDER</text>
  <text x="430" y="540" text-anchor="middle" font-family="Inter, system-ui, sans-serif" font-size="44" font-weight="700" fill="#ffffff">Caimán llanero</text>
  <text x="430" y="578" text-anchor="middle" font-family="Inter, system-ui, sans-serif" font-size="22" font-style="italic" fill="#ffffff" opacity="0.85">Crocodylus intermedius</text>
</svg>
